<?xml version="1.0" encoding="UTF-8"?>
<svg width="354px" height="177px" viewBox="0 0 354 177" version="1.1" xmlns="http://www.w3.org/2000/svg" xmlns:xlink="http://www.w3.org/1999/xlink">
    <title>Group</title>
    <g id="Page-1" stroke="none" stroke-width="1" fill="none" fill-rule="evenodd">
        <g id="Desktop-HD-Copy" transform="translate(-922.000000, -263.000000)">
            <g id="Group" transform="translate(922.000000, 263.000000)">
                <g id="Group-123" fill-rule="nonzero">
                    <path d="M5.28041902,177 C2.32183995,177 -0.0848607203,174.615512 0.00229491416,171.678002 C1.29316367,128.17192 18.3578123,88.598363 45.7120628,58.4045475 C47.6745039,56.2382181 51.0372601,56.146698 53.1832672,58.1342441 L58.4356095,62.9989964 C60.6187583,65.0213059 60.7094699,68.4203183 58.7195296,70.6306342 C34.405295,97.6347272 19.2071082,132.907551 17.9282894,171.677647 C17.8314352,174.614803 15.4422569,177 12.4836671,177 L5.28041902,177 Z" id="Path" fill="#04BF55"></path>
                    <path d="M282.234117,57.0477404 C284.335942,58.8908348 287.503402,58.9003973 289.549179,56.9956776 L294.745743,52.1573778 C296.98911,50.0688444 297.00862,46.5186565 294.717364,44.4828943 C265.682373,18.6890649 228.102087,2.27622451 186.747383,0.00788817448 C183.761904,-0.155860702 181.296117,2.25118832 181.296117,5.23624682 L181.296117,12.3331164 C181.296117,15.2114815 183.595177,17.5569643 186.47317,17.7265404 C223.076152,19.8832866 256.362329,34.3539149 282.234117,57.0477404 Z" id="Path" fill="#FE7501"></path>
                    <path d="M336.428548,171.677653 C336.524406,174.614805 338.882095,177 341.801542,177 L348.789323,177 C351.708769,177 354.083727,174.615515 353.997736,171.678008 C352.723738,128.171617 335.884412,88.5984563 308.891164,58.4046728 C306.954264,56.2379909 303.635879,56.1468256 301.51854,58.1343696 L296.401051,62.937394 C294.246004,64.9604108 294.157194,68.3608386 296.12264,70.5707973 C320.14675,97.5826659 335.165828,132.879219 336.428548,171.677653 Z" id="Path" fill="#D92323"></path>
                    <path d="M167.531166,17.7168787 C170.407342,17.5455149 172.703883,15.2028586 172.703883,12.3287019 L172.703883,5.23138056 C172.703883,2.24910865 170.238489,-0.155679564 167.253056,0.00787717446 C125.898279,2.27361194 88.3175076,18.6711803 59.2826092,44.4414263 C56.9913886,46.475288 57.0108989,50.0221618 59.2542306,52.1087455 L64.5096004,56.9970198 C66.5560552,58.9006691 69.7248854,58.8904078 71.8263238,57.0469109 C97.6792669,34.3680075 130.945421,19.8968049 167.531166,17.7168787 Z" id="Path" fill="#FFBF01"></path>
                    <path d="M295.733859,90.8142657 C296.848718,90.9524395 297.634312,92.3999565 297.140753,93.4065384 L288.910713,110.190788 C288.421843,111.187816 287.041941,111.00412 286.420615,109.859288 L276.061062,90.7710688 C275.439731,89.6262365 276.03999,88.3734324 277.14429,88.5102957 L295.733859,90.8142657 Z" id="Path" fill="#516A7B"></path>
                </g>
                <g id="Polygon-4" transform="translate(275.810680, 88.500000)"></g>
            </g>
        </g>
    </g>
</svg>