<?xml version="1.0" encoding="UTF-8"?>
<svg width="181px" height="186px" viewBox="0 0 181 186" version="1.1" xmlns="http://www.w3.org/2000/svg" xmlns:xlink="http://www.w3.org/1999/xlink">
    <title>Phishing</title>
    <g id="Page-1" stroke="none" stroke-width="1" fill="none" fill-rule="evenodd">
        <g id="Desktop-HD-Copy" transform="translate(-632.000000, -1046.000000)" fill="#EB5757" fill-rule="nonzero">
            <g id="Group-16" transform="translate(149.000000, 868.000000)">
                <g id="Group-5" transform="translate(14.000000, 141.000000)">
                    <g id="Group-2-Copy" transform="translate(405.000000, 0.000000)">
                        <g id="Phishing" transform="translate(64.000000, 37.000000)">
                            <path d="M137.71297,24.1668185 C138.140744,22.3644353 138.009294,20.4706693 137.335667,18.7251464 C136.662041,16.9793978 135.476297,15.4601882 133.92828,14.3597596 C132.380263,13.2591055 130.539736,12.6264211 128.639316,12.5418075 C126.738895,12.4571938 124.864047,12.9244867 123.251651,13.8843438 C121.639255,14.8442009 120.361765,16.2537513 119.580915,17.9347422 C118.800065,19.6157331 118.550848,21.4923507 118.864893,23.3276769 C119.178713,25.1630031 120.041664,26.8744549 121.344277,28.2454214 C122.647115,29.6166136 124.331293,30.5859474 126.183933,31.0306767 C128.668028,31.6241004 131.276844,31.2348776 133.43837,29.9480734 C135.599672,28.6612693 137.137146,26.5820302 137.71297,24.1668185 Z M125.223853,21.1683369 C125.366295,20.5676929 125.688864,20.0243605 126.15051,19.6071589 C126.611932,19.1899573 127.192017,18.9178398 127.817191,18.8248776 C128.44214,18.7319155 129.084362,18.8223956 129.662205,19.0850364 C130.240047,19.3476771 130.727714,19.7705196 131.063518,20.3003138 C131.399322,20.8298824 131.568457,21.4424851 131.548942,22.0605031 C131.52965,22.6787467 131.323054,23.2746524 130.954948,23.7728574 C130.586843,24.2712882 130.074277,24.6496804 129.481629,24.8599734 C128.888757,25.0704922 128.242946,25.1038864 127.625399,24.9556433 C126.797891,24.7557294 126.080298,24.2448887 125.630093,23.5350367 C125.179887,22.8249591 125.033856,21.9740844 125.223853,21.1683369 Z M178.300581,75.6477856 L128.343665,63.654536 L133.15887,43.3603502 C138.133341,42.3677758 142.588293,39.7465582 145.790878,35.9278883 C148.993462,32.1092185 150.753235,27.320538 150.780827,22.349092 C150.808418,17.377646 149.102032,12.5196951 145.942292,8.57376637 C142.782552,4.62783765 138.357659,1.82926983 133.395301,0.637864708 C128.432943,-0.553472728 123.228546,-0.0664817645 118.637883,2.01880438 C114.04722,4.10391001 110.343509,7.66332365 108.135998,12.1112933 C105.928486,16.5592629 105.348625,21.6313427 106.491524,26.4933551 C107.634647,31.3551418 110.432563,35.7173696 114.425195,38.8627405 L109.609765,59.157152 L90.8758659,54.659768 L93.0380649,45.5469922 C93.1894795,44.9095694 93.1307082,44.2387525 92.8702752,43.6295343 C92.609618,43.0203162 92.1607581,42.5038345 91.5869532,42.15297 C91.0131483,41.8021054 90.3433354,41.6346833 89.6728496,41.6746209 C89.0021394,41.7145585 88.3646283,41.9598253 87.8504919,42.3754474 L76.8254973,51.2865043 L28.4298333,39.6680367 C27.6016521,39.4692511 26.7317477,39.5987663 26.0110147,40.0277011 C25.2902816,40.4568614 24.7779398,41.1504676 24.5868211,41.9559894 L0.0821156246,145.232009 C-0.109034529,146.037531 0.03660379,146.889083 0.486982301,147.599386 C0.937367542,148.309689 1.65559943,148.820304 2.48369095,149.01909 L152.354416,184.998839 C153.182373,185.197625 154.052501,185.068335 154.773234,184.639175 C155.493967,184.210014 156.006309,183.516408 156.197428,182.710886 L180.702127,79.4348663 C180.893246,78.6293445 180.747663,77.7777929 180.297233,77.0674896 C179.846803,76.3574119 179.128538,75.8465712 178.300581,75.6477856 Z M119.750724,34.9714158 C116.561598,32.9440731 114.192353,29.8916644 113.061792,26.3539118 C111.93123,22.8163849 112.11203,19.0211813 113.572563,15.6393435 C115.032872,12.2575056 117.678925,9.5065471 121.04257,7.87316546 C124.406215,6.23955819 128.270986,5.82867438 131.953835,6.71294328 C135.636909,7.59698656 138.900508,9.71932219 141.168361,12.7047169 C143.435989,15.6901116 144.561616,19.3465489 144.346271,23.0271293 C144.130926,26.7079353 142.588293,30.1761918 139.991366,32.8190705 C137.394439,35.4617236 133.910111,37.1088691 130.154358,37.4689847 C129.49621,37.5330654 128.877765,37.794578 128.383593,38.2180974 C127.889646,38.6416169 127.544421,39.2059334 127.395249,39.8338794 L122.098882,62.155408 L115.854324,60.65628 L121.150691,38.3347514 C121.299638,37.7068054 121.244904,37.0463678 120.994341,36.4441443 C120.743554,35.8419209 120.309275,35.32747 119.750724,34.9714158 Z M81.0276423,68.3482236 C80.2019286,71.8489718 80.64204,75.5388032 82.2739519,78.7958641 C83.9056394,82.052925 86.6293059,84.6779785 89.9857729,86.2285516 L88.523221,92.3924858 C83.4989513,90.407337 79.3466049,86.7348796 76.8239271,82.0452534 C74.3014736,77.3556272 73.5769272,71.9620156 74.7830839,66.8490956 C74.9742027,66.0433481 74.8286204,65.1917965 74.3781903,64.4817189 C73.9277602,63.7714156 73.2094947,63.2608005 72.3815378,63.0620149 L84.6313075,53.1604143 L81.0276423,68.3482236 Z M70.7007246,56.2371918 L63.3507282,62.1781972 C62.8958117,62.5457589 62.5566433,63.031554 62.3711325,63.5809785 C62.185846,64.1301774 62.1616196,64.7213447 62.3011453,65.2881432 C62.440671,65.8551674 62.7387893,66.3750336 63.1616283,66.7899789 C63.5844673,67.2051498 64.1156518,67.4987027 64.6955133,67.6376947 L67.9900686,68.4287758 C67.1820759,75.2948903 68.9941149,82.2494543 73.0814092,87.9673054 C77.1684792,93.6851565 83.2447993,97.766467 90.1526653,99.4336941 C90.9808466,99.6324797 91.8509753,99.5031901 92.571484,99.0742554 C93.292217,98.645095 93.8045588,97.9514888 93.9956776,97.1457414 L96.8786097,84.9956745 C97.0697284,84.1901527 96.9241462,83.338601 96.4737161,82.6282978 C96.023286,81.9182201 95.3050204,81.4073794 94.4770635,81.2085938 C91.9943143,80.6097549 89.8413123,79.0772327 88.4906949,76.9472254 C87.1398532,74.8174438 86.7017606,72.263917 87.2722007,69.8473516 L89.4343998,60.7348014 L173.736611,80.973255 L170.518772,94.5353543 L87.6544382,123.871015 L26.8928079,60.0547334 L30.1106464,46.4928598 L70.7007246,56.2371918 Z M7.04745864,143.693621 L25.1604016,67.3561005 L84.4567882,129.632639 C84.8908431,130.088425 85.4514133,130.410408 86.0678385,130.558425 C86.6842638,130.706443 87.3289531,130.673726 87.9207034,130.464109 L168.786366,101.836496 L150.673378,178.174241 L7.04745864,143.693621 Z" id="Shape"></path>
                        </g>
                    </g>
                </g>
            </g>
        </g>
    </g>
</svg>